Coordinates
version=1
nRows=11
nColumns=33
inDegrees=yes

Units are S.I. units (second, meters, Newtons, ...)
Angles are in degrees.

endheader
time	ground_thorax_rot_x	ground_thorax_rot_y	ground_thorax_rot_z	ground_thorax_tx	ground_thorax_ty	ground_thorax_tz	clav_prot_r	clav_elev_r	scapula_abduction_r	scapula_elevation_r	scapula_upward_rot_r	scapula_winging_r	shoulder_elv_r	plane_of_elev_r	axial_rot_r	elbow_flexion_r	pro_sup_r	wrist_flex_r	wrist_dev_r	clav_prot_l	clav_elev_l	scapula_abduction_l	scapula_elevation_l	scapula_upward_rot_l	scapula_winging_l	shoulder_elv_l	plane_of_elev_l	axial_rot_l	elbow_flexion_l	pro_sup_l	wrist_flex_l	wrist_dev_l	
3.9500	-19.913621	-35.716492	53.202583	76.826755	782.206781	-45.545823	30.507083	-45.000000	40.698504	-45.000000	-45.000000	-1542.652535	-2086.172690	19.766022	-142.230784	360.645743	172.407390	12.679516	11.945418	-0.940653	30.940505	-28.454331	-45.000000	-45.000000	-2795.766647	1349.493729	133.768267	-108.958353	2151.179522	-311.942846	10.377880	-15.230508	
3.9600	-20.135662	-35.550122	52.854874	76.788575	781.972842	-45.618288	30.402291	-45.000000	40.631913	-45.000000	-45.000000	-1542.562008	-2086.141553	19.800716	-142.363335	360.640210	172.535475	12.725816	11.935146	-0.865971	30.894809	-28.371170	-45.000000	-45.000000	-2795.898263	1349.729828	133.742960	-108.500993	2151.141080	-311.811277	10.300874	-15.195943	
3.9700	-20.326892	-35.402119	52.548334	76.711724	781.744561	-45.688210	30.266908	-45.000000	40.576367	-45.000000	-45.000000	-1542.487359	-2086.095370	19.835361	-142.454088	360.642576	172.659470	12.799304	11.984490	-0.728117	30.853287	-28.232230	-45.000000	-45.000000	-2796.030272	1350.021294	133.696984	-107.978614	2151.090587	-311.686835	10.314275	-15.182794	
3.9800	-20.488315	-35.272989	52.303553	76.553167	781.530917	-45.751957	30.193109	-45.000000	40.540741	-45.000000	-45.000000	-1542.439291	-2086.061090	19.863244	-142.514932	360.655667	172.790950	12.849322	11.991491	-0.650962	30.836154	-28.171911	-45.000000	-45.000000	-2796.089142	1350.163313	133.687230	-107.820376	2151.081155	-311.563020	10.304090	-15.190395	
3.9900	-20.633267	-35.155498	52.096505	76.306334	781.330802	-45.809583	30.150480	-45.000000	40.513411	-45.000000	-45.000000	-1542.411471	-2086.028625	19.886398	-142.542483	360.669603	172.914237	12.884154	11.976730	-0.612254	30.826921	-28.152058	-45.000000	-45.000000	-2796.101201	1350.230596	133.692689	-107.847298	2151.089894	-311.450598	10.280333	-15.211254	
4.0000	-20.759136	-35.050567	51.927140	75.959599	781.144031	-45.860658	30.127362	-45.000000	40.499686	-45.000000	-45.000000	-1542.408189	-2085.999978	19.907024	-142.539614	360.693559	173.018318	12.915564	11.962375	-0.578850	30.836021	-28.149409	-45.000000	-45.000000	-2796.083781	1350.249987	133.713533	-108.020529	2151.117246	-311.353890	10.284132	-15.246501	
4.0100	-20.891922	-34.942963	51.757707	75.512175	780.968034	-45.905486	30.121234	-45.000000	40.482118	-45.000000	-45.000000	-1542.415357	-2085.971870	19.923703	-142.515806	360.710327	173.093230	12.926427	11.923284	-0.585521	30.840010	-28.175900	-45.000000	-45.000000	-2796.042544	1350.233680	133.740031	-108.258232	2151.146381	-311.280120	10.253110	-15.279707	
4.0200	-21.023086	-34.836816	51.592495	74.968258	780.798946	-45.944653	30.108665	-45.000000	40.472156	-45.000000	-45.000000	-1542.434866	-2085.946223	19.938998	-142.479893	360.736582	173.130058	12.941038	11.902339	-0.570889	30.854330	-28.191071	-45.000000	-45.000000	-2796.007127	1350.232019	133.773638	-108.476197	2151.174429	-311.230235	10.262997	-15.314820	
4.0300	-21.170996	-34.721345	51.407906	74.332463	780.633474	-45.978407	30.103419	-45.000000	40.454739	-45.000000	-45.000000	-1542.453089	-2085.920098	19.948909	-142.438419	360.755633	173.132743	12.935154	11.862139	-0.590049	30.856486	-28.229256	-45.000000	-45.000000	-2795.959821	1350.217350	133.808262	-108.684348	2151.191869	-311.204207	10.234303	-15.342669	
4.0400	-21.318597	-34.604150	51.221636	73.609280	780.468640	-46.006888	30.093130	-45.000000	40.444138	-45.000000	-45.000000	-1542.481550	-2085.897357	19.962277	-142.391669	360.786577	173.105432	12.936078	11.840526	-0.585956	30.872379	-28.253994	-45.000000	-45.000000	-2795.924885	1350.216430	133.849382	-108.876270	2151.208354	-311.196206	10.248509	-15.371204	
4.0500	-21.479996	-34.480092	51.017707	72.802912	780.302324	-46.030166	30.086012	-45.000000	40.426886	-45.000000	-45.000000	-1542.504998	-2085.872270	19.971282	-142.337172	360.811651	173.059928	12.922329	11.811533	-0.605151	30.876174	-28.289411	-45.000000	-45.000000	-2795.877780	1350.210377	133.880793	-109.061202	2151.211426	-311.203863	10.233008	-15.397219	
